<?xml version="1.0" standalone="no"?>
<!DOCTYPE svg PUBLIC "-//W3C//DTD SVG 20010904//EN"
 "http://www.w3.org/TR/2001/REC-SVG-20010904/DTD/svg10.dtd">
<svg version="1.0" xmlns="http://www.w3.org/2000/svg"
 width="512.000000pt" height="512.000000pt" viewBox="0 0 512.000000 512.000000"
 preserveAspectRatio="xMidYMid meet">
<metadata>
Created by potrace 1.14, written by Peter Selinger 2001-2017
</metadata>
<g transform="translate(0.000000,512.000000) scale(0.100000,-0.100000)"
fill="#000000" stroke="none">
<path d="M2345 5114 c-16 -2 -84 -11 -150 -20 -824 -110 -1564 -649 -1935
-1409 -117 -240 -195 -490 -236 -760 -26 -169 -26 -562 -1 -725 133 -857 639
-1552 1407 -1934 753 -374 1652 -348 2388 69 933 528 1437 1580 1266 2644 -20
128 -75 338 -119 457 -52 142 -182 402 -262 524 -404 614 -1045 1024 -1773
1135 -100 16 -515 29 -585 19z m-149 -788 c547 -116 930 -615 901 -1172 l-6
-111 97 -7 c311 -23 547 -128 752 -336 206 -208 316 -460 327 -751 6 -153 -5
-256 -43 -388 -148 -509 -662 -857 -1186 -802 -601 63 -1036 568 -1016 1179
l5 132 -46 0 c-81 0 -223 21 -311 46 -314 90 -588 330 -720 632 -189 430 -96
937 235 1267 168 168 376 279 590 314 39 6 81 13 95 15 48 9 256 -3 326 -18z
m-879 -2847 c15 -6 37 -19 49 -30 20 -19 21 -19 39 0 63 70 195 38 225 -55 17
-51 5 -95 -44 -161 -38 -50 -149 -152 -191 -176 -18 -10 -152 97 -204 163 -64
81 -76 155 -36 217 30 45 104 64 162 42z"/>
<path d="M1417 3583 c-40 -43 -57 -94 -57 -175 0 -50 6 -86 20 -115 19 -43 69
-83 103 -83 130 0 177 288 62 378 -40 32 -94 29 -128 -5z"/>
<path d="M2379 3583 c-97 -82 -92 -283 10 -350 157 -105 290 192 151 338 -32
34 -42 39 -83 39 -35 0 -53 -6 -78 -27z"/>
<path d="M1820 2834 c-83 -17 -241 -95 -274 -135 -30 -35 -32 -56 -10 -87 21
-30 67 -29 108 3 18 13 61 38 97 54 155 69 306 69 478 -1 l73 -31 39 44 c21
24 38 47 39 50 1 14 -154 80 -232 99 -97 23 -222 25 -318 4z"/>
<path d="M2614 2276 l-34 -34 0 -120 c0 -103 3 -123 20 -144 56 -72 154 -58
199 29 16 31 14 196 -3 238 -17 40 -60 65 -112 65 -28 0 -44 -8 -70 -34z"/>
<path d="M3512 2282 c-40 -37 -45 -60 -40 -182 3 -100 3 -102 35 -131 58 -51
115 -51 165 3 28 30 28 32 28 150 l0 120 -34 34 c-29 29 -41 34 -79 34 -36 0
-51 -6 -75 -28z"/>
<path d="M2684 1720 c-54 -22 -68 -100 -39 -215 71 -270 353 -439 620 -370
217 57 385 266 385 480 0 53 -3 65 -26 86 l-26 24 -446 2 c-246 1 -457 -2
-468 -7z m896 -99 c0 -39 -12 -46 -110 -65 -209 -40 -438 -40 -650 -1 -123 23
-120 22 -120 61 l0 34 440 0 440 0 0 -29z"/>
</g>
</svg>
